# xmcd
#
# Track frame offsets:
#	182
#	16512
#	35430
#
# Disc length: 1027 seconds
# Revision: 0
# Processed by: cddbd v1.5.2PL0 Copyright (c) Steve Scherf et al.
# Submitted via: dBpowerAMP V12.0
#
DISCID=13040103
DTITLE=Bruce Roberts - When The Money's Gone
DYEAR=1995
DGENRE=House
TTITLE0=When The Money's Gone [E-Smoove Radio Edit]
TTITLE1=When The Money's Gone [Album Edit]
TTITLE2=When The Money's Gone [E-Smoove Club Mix]
EXTD=
EXTT0=
EXTT1=
EXTT2=
PLAYORDER=
